<?xml version="1.0"?>
<svg xmlns="http://www.w3.org/2000/svg" xmlns:xlink="http://www.w3.org/1999/xlink" version="1.1" viewBox="0 0 224 224" width="64px" height="64px"><g fill="none" fill-rule="nonzero" stroke="none" stroke-width="1" stroke-linecap="butt" stroke-linejoin="miter" stroke-miterlimit="10" stroke-dasharray="" stroke-dashoffset="0" font-family="none" font-weight="none" font-size="none" text-anchor="none" style="mix-blend-mode: normal"><path d="M0,224v-224h224v224z" fill="none"/><g fill="#00e0d0"><g id="surface1"><path d="M49,35c-7.65625,0 -14,6.34375 -14,14v126c0,7.65625 6.34375,14 14,14h126c7.65625,0 14,-6.34375 14,-14v-126c0,-7.65625 -6.34375,-14 -14,-14zM49,49h126v126h-36.3125v-47.25h18.15625l2.625,-21h-20.78125v-13.5625c0,-6.125 1.50391,-10.28125 10.28125,-10.28125h11.375v-19.03125c-1.94141,-0.24609 -8.66797,-0.65625 -16.40625,-0.65625c-16.13281,0 -27.125,9.70703 -27.125,27.78125v15.75h-18.375v21h18.375v47.25h-67.8125z"/></g></g></g></svg>
